<svg xmlns="http://www.w3.org/2000/svg" version="1.1" xmlns:xlink="http://www.w3.org/1999/xlink" xmlns:svgjs="http://svgjs.com/svgjs" width="1440" height="560" preserveAspectRatio="none" viewBox="0 0 1440 560"><g mask="url(&quot;#SvgjsMask3336&quot;)" fill="none"><rect width="1440" height="560" x="0" y="0" fill="url(#SvgjsRadialGradient3337)"></rect><path d="M0 0L233.3 0L0 173.15z" fill="rgba(255, 255, 255, .1)"></path><path d="M0 173.15L233.3 0L852.4100000000001 0L0 254.9z" fill="rgba(255, 255, 255, .075)"></path><path d="M0 254.9L852.4100000000001 0L1179.5100000000002 0L0 268.37z" fill="rgba(255, 255, 255, .05)"></path><path d="M0 268.37L1179.5100000000002 0L1229.5500000000002 0L0 472.68z" fill="rgba(255, 255, 255, .025)"></path><path d="M1440 560L1042.3899999999999 560L1440 368.22z" fill="rgba(0, 0, 0, .1)"></path><path d="M1440 368.22L1042.3899999999999 560L807.5499999999998 560L1440 329.52000000000004z" fill="rgba(0, 0, 0, .075)"></path><path d="M1440 329.52L807.55 560L380.90999999999997 560L1440 317.95z" fill="rgba(0, 0, 0, .05)"></path><path d="M1440 317.95L380.90999999999985 560L349.96999999999986 560L1440 108.57z" fill="rgba(0, 0, 0, .025)"></path></g><defs><mask id="SvgjsMask3336"><rect width="1440" height="560" fill="#ffffff"></rect></mask><radialGradient cx="0%" cy="100%" r="1545.06" gradientUnits="userSpaceOnUse" id="SvgjsRadialGradient3337"><stop stop-color="#0e2a47" offset="0"></stop><stop stop-color="rgba(56, 107, 101, 0.96)" offset="0.39"></stop></radialGradient></defs></svg>